<svg xmlns="http://www.w3.org/2000/svg" xml:space="preserve" style="enable-background:new 0 0 1477 424" viewBox="0 0 1477 424"><path d="M12.5 150.15h178.36c3.04 0 5.5-2.46 5.5-5.5V99.29c0-3.04-2.46-5.5-5.5-5.5H12.5c-3.04 0-5.5 2.46-5.5 5.5v45.36c0 3.04 2.46 5.5 5.5 5.5zM12.5 329.32h178.36c3.04 0 5.5-2.46 5.5-5.5v-45.36c0-3.04-2.46-5.5-5.5-5.5H12.5c-3.04 0-5.5 2.46-5.5 5.5v45.36c0 3.04 2.46 5.5 5.5 5.5z"/><path d="M320.04 417.28c-51.72 0-90.39-12.62-116.04-37.87-25.66-25.24-38.48-61.1-38.48-107.56V151.26c0-46.86 12.82-82.81 38.48-107.86 25.65-25.04 64.33-37.57 116.04-37.57 51.71 0 90.38 12.53 116.04 37.57 25.65 25.05 38.48 61 38.48 107.86v120.59c0 46.46-12.83 82.32-38.48 107.56-25.66 25.25-64.33 37.87-116.04 37.87zm0-53.93c30.7 0 53.93-7.97 69.69-23.94 15.76-15.95 23.63-39.08 23.63-69.38V153.08c0-30.7-7.88-53.93-23.63-69.69-15.75-15.75-38.99-23.63-69.69-23.63-30.3 0-53.43 7.88-69.38 23.63-15.96 15.76-23.94 38.99-23.94 69.69v116.95c0 30.3 7.97 53.43 23.94 69.38 15.95 15.97 39.08 23.94 69.38 23.94zM549.88 410.01c-4.45 0-6.66-2.22-6.66-6.67V19.77c0-4.44 2.22-6.67 6.66-6.67h106.04c50.5 0 88.17 10.71 113.01 32.12 24.84 21.42 37.27 52.72 37.27 93.93 0 41.21-12.63 72.52-37.87 93.93-25.25 21.42-62.72 32.12-112.41 32.12h-51.51v138.16c0 4.45-2.22 6.67-6.67 6.67h-47.86zm54.54-196.33h50.3c31.1 0 53.93-5.85 68.47-17.57 14.54-11.71 21.82-30.09 21.82-55.14 0-26.66-7.38-45.95-22.12-57.87-14.75-11.91-37.67-17.88-68.78-17.88h-49.69v148.46zM871.59 410.01c-4.45 0-6.67-2.22-6.67-6.67V19.77c0-4.44 2.22-6.67 6.67-6.67h223c4.03 0 6.06 2.23 6.06 6.67v41.21c0 4.45-2.03 6.67-6.06 6.67H926.13v115.13h153.92c4.03 0 6.06 2.03 6.06 6.06v39.39c0 4.45-2.03 6.67-6.06 6.67H926.13v120.59h168.46c4.03 0 6.06 2.22 6.06 6.67v41.21c0 4.45-2.03 6.67-6.06 6.67h-223zM1172.04 410.01c-4.45 0-6.67-2.22-6.67-6.67V19.77c0-4.44 2.22-6.67 6.67-6.67H1249c4.03 0 6.67 1.62 7.88 4.85l106.65 215.12c7.27 14.54 13.83 27.87 19.69 39.99 5.85 12.12 11.11 23.63 15.76 34.54 4.64 10.91 8.99 21.42 13.03 31.51h1.21c0-10.91-.1-22.62-.3-35.15-.21-12.52-.41-25.15-.61-37.87-.21-12.73-.3-24.54-.3-35.45V19.77c0-4.44 2.02-6.67 6.06-6.67h47.27c4.44 0 6.67 2.23 6.67 6.67v383.58c0 4.45-2.22 6.67-6.67 6.67h-76.35c-3.64 0-6.06-1.61-7.27-4.85l-104.23-209.06a1545 1545 0 0 1-18.48-38.18 5082.64 5082.64 0 0 1-17.27-37.27c-5.66-12.32-11.12-24.33-16.36-36.06h-1.21c.4 13.33.7 26.36.91 39.09.2 12.72.3 25.36.3 37.87V403.34c0 4.45-2.23 6.67-6.67 6.67h-46.67z"/></svg>