<svg xmlns="http://www.w3.org/2000/svg" xml:space="preserve" id="Layer_1" x="0" y="0" style="enable-background:new 0 0 480 480" version="1.1" viewBox="0 0 480 480"><style>.st0{fill:#fff}</style><path d="M11 178.15h178.36c3.04 0 5.5-2.46 5.5-5.5v-45.36c0-3.04-2.46-5.5-5.5-5.5H11c-3.04 0-5.5 2.46-5.5 5.5v45.36c0 3.04 2.46 5.5 5.5 5.5zM11 357.32h178.36c3.04 0 5.5-2.46 5.5-5.5v-45.36c0-3.04-2.46-5.5-5.5-5.5H11c-3.04 0-5.5 2.46-5.5 5.5v45.36c0 3.04 2.46 5.5 5.5 5.5z" class="st0"/><path d="M318.54 445.28c-51.72 0-90.39-12.62-116.04-37.87-25.66-25.24-38.48-61.1-38.48-107.56V179.26c0-46.86 12.82-82.81 38.48-107.86 25.65-25.04 64.33-37.57 116.04-37.57 51.71 0 90.38 12.53 116.04 37.57 25.65 25.05 38.48 61 38.48 107.86v120.59c0 46.46-12.83 82.32-38.48 107.56-25.66 25.25-64.33 37.87-116.04 37.87zm0-53.93c30.7 0 53.93-7.97 69.69-23.94 15.76-15.95 23.63-39.08 23.63-69.38V181.08c0-30.7-7.88-53.93-23.63-69.69-15.75-15.75-38.99-23.63-69.69-23.63-30.3 0-53.43 7.88-69.38 23.63-15.96 15.76-23.94 38.99-23.94 69.69v116.95c0 30.3 7.97 53.43 23.94 69.38 15.95 15.97 39.08 23.94 69.38 23.94z" class="st0"/></svg>