<svg xmlns="http://www.w3.org/2000/svg" xml:space="preserve" style="enable-background:new 0 0 1247 101" viewBox="0 0 1247 101"><path fill="#fff" d="M28.43 72.54c-3.33 0-6.36-.61-9.11-1.84-2.75-1.23-5.06-3.12-6.92-5.66h-.56c.37 2.98.56 5.81.56 8.48v21.02H4.66V20.52h6.29l1.07 6.99h.37c1.99-2.8 4.3-4.82 6.95-6.06 2.64-1.24 5.67-1.86 9.09-1.86 6.77 0 12 2.32 15.68 6.95 3.68 4.63 5.52 11.12 5.52 19.48 0 8.39-1.87 14.91-5.62 19.55-3.74 4.65-8.93 6.97-15.58 6.97zm-1.12-46.38c-5.22 0-9 1.44-11.33 4.33s-3.53 7.49-3.59 13.8v1.72c0 7.18 1.2 12.31 3.59 15.4 2.39 3.09 6.23 4.64 11.51 4.64 4.41 0 7.87-1.79 10.37-5.36 2.5-3.57 3.75-8.5 3.75-14.78 0-6.37-1.25-11.26-3.75-14.66-2.49-3.39-6.01-5.09-10.55-5.09zm54.54 46.38c-7.55 0-13.51-2.3-17.88-6.9-4.37-4.6-6.55-10.98-6.55-19.16 0-8.23 2.03-14.78 6.08-19.62s9.5-7.27 16.34-7.27c6.4 0 11.47 2.11 15.2 6.32 3.73 4.21 5.59 9.77 5.59 16.66v4.89H65.44c.16 6 1.67 10.55 4.54 13.66 2.87 3.11 6.92 4.66 12.14 4.66 5.5 0 10.94-1.15 16.31-3.45v6.9c-2.73 1.18-5.32 2.03-7.76 2.54-2.43.51-5.37.77-8.82.77zm-2.1-46.47c-4.1 0-7.37 1.34-9.81 4.01-2.44 2.67-3.88 6.37-4.31 11.09h26.71c0-4.88-1.09-8.62-3.26-11.21-2.18-2.59-5.29-3.89-9.33-3.89zm67.09 45.54V38.56c0-4.16-.95-7.27-2.84-9.32-1.9-2.05-4.86-3.08-8.9-3.08-5.35 0-9.26 1.44-11.75 4.33s-3.73 7.66-3.73 14.31v26.8h-7.74V20.52h6.29l1.26 6.99h.37c1.58-2.52 3.81-4.47 6.67-5.85s6.04-2.07 9.56-2.07c6.15 0 10.78 1.48 13.89 4.45 3.11 2.97 4.66 7.71 4.66 14.24v33.33h-7.74zm88.64-48.29c0 6.9-2.35 12.21-7.06 15.92-4.71 3.71-11.44 5.57-20.21 5.57h-8.02v26.8h-7.92V3.46h17.67c17.03 0 25.54 6.62 25.54 19.86zM200.2 38h7.13c7.02 0 12.1-1.13 15.24-3.4 3.14-2.27 4.71-5.9 4.71-10.91 0-4.51-1.48-7.86-4.43-10.07-2.95-2.21-7.55-3.31-13.8-3.31h-8.86V38zm89.62 8.02c0 8.33-2.1 14.83-6.29 19.51-4.19 4.68-9.99 7.01-17.39 7.01-4.57 0-8.62-1.07-12.17-3.22-3.54-2.14-6.28-5.22-8.2-9.23-1.93-4.01-2.89-8.7-2.89-14.08 0-8.33 2.08-14.81 6.25-19.46s9.94-6.97 17.34-6.97c7.15 0 12.83 2.38 17.04 7.13 4.2 4.77 6.31 11.2 6.31 19.31zm-38.92 0c0 6.53 1.31 11.5 3.92 14.92s6.45 5.13 11.51 5.13 8.91-1.7 11.54-5.1c2.63-3.4 3.94-8.38 3.94-14.94 0-6.49-1.31-11.43-3.94-14.8-2.63-3.37-6.5-5.06-11.63-5.06-5.07 0-8.89 1.66-11.47 4.99-2.58 3.32-3.87 8.27-3.87 14.86zm92.15 25.59-9.37-29.97c-.59-1.83-1.69-6-3.31-12.49H330c-1.24 5.44-2.33 9.63-3.26 12.58l-9.65 29.88h-8.95L294.2 20.52h8.11c3.29 12.83 5.8 22.61 7.53 29.32 1.72 6.71 2.71 11.23 2.96 13.56h.37c.34-1.77.89-4.06 1.65-6.88.76-2.81 1.42-5.04 1.98-6.69l9.37-29.32h8.39l9.14 29.32c1.74 5.35 2.92 9.83 3.54 13.47h.37c.12-1.12.46-2.84 1-5.17s3.78-14.87 9.72-37.61h8.02l-14.12 51.09h-9.18zm51.48.93c-7.55 0-13.51-2.3-17.88-6.9-4.37-4.6-6.55-10.98-6.55-19.16 0-8.23 2.03-14.78 6.08-19.62s9.5-7.27 16.34-7.27c6.4 0 11.47 2.11 15.2 6.32 3.73 4.21 5.59 9.77 5.59 16.66v4.89h-35.19c.16 6 1.67 10.55 4.54 13.66 2.87 3.11 6.92 4.66 12.14 4.66 5.5 0 10.94-1.15 16.31-3.45v6.9c-2.73 1.18-5.32 2.03-7.76 2.54-2.43.51-5.37.77-8.82.77zm-2.1-46.47c-4.1 0-7.37 1.34-9.81 4.01-2.44 2.67-3.88 6.37-4.31 11.09h26.71c0-4.88-1.09-8.62-3.26-11.21-2.18-2.59-5.29-3.89-9.33-3.89zm55.44-6.48c2.27 0 4.3.19 6.11.56l-1.07 7.18c-2.11-.47-3.98-.7-5.59-.7-4.13 0-7.67 1.68-10.6 5.03s-4.4 7.54-4.4 12.54v27.41h-7.74V20.52h6.39l.89 9.46h.37c1.9-3.32 4.18-5.89 6.85-7.69 2.65-1.8 5.59-2.7 8.79-2.7zm32.98 34.35c0-4.04 1.08-7.61 3.24-10.72 2.16-3.11 6.04-6.25 11.63-9.42-2.64-2.95-4.44-5.19-5.38-6.71a22.92 22.92 0 0 1-2.26-4.75c-.56-1.65-.84-3.36-.84-5.13 0-4.66 1.52-8.3 4.57-10.91 3.04-2.61 7.29-3.92 12.72-3.92 5.03 0 9 1.3 11.89 3.89 2.89 2.59 4.33 6.21 4.33 10.84 0 3.33-1.06 6.39-3.17 9.21-2.11 2.81-5.61 5.66-10.49 8.55l18.97 18.23c1.74-1.93 3.13-4.19 4.17-6.78s1.92-5.43 2.63-8.51h7.83c-2.11 8.89-5.3 15.63-9.55 20.23l13.94 13.56h-10.67l-8.62-8.3c-3.67 3.29-7.4 5.66-11.19 7.08-3.79 1.43-8.02 2.14-12.68 2.14-6.68 0-11.86-1.65-15.54-4.94-3.68-3.27-5.53-7.83-5.53-13.64zm21.26 11.66c7.49 0 13.7-2.39 18.64-7.18l-20.37-19.76c-3.45 2.11-5.89 3.86-7.32 5.24-1.43 1.38-2.49 2.87-3.17 4.45-.68 1.58-1.03 3.39-1.03 5.41 0 3.64 1.2 6.52 3.61 8.65 2.42 2.12 5.63 3.19 9.64 3.19zm-7.23-48.57c0 2.14.56 4.19 1.68 6.13 1.12 1.94 3.03 4.28 5.73 7.02 4.01-2.33 6.8-4.48 8.37-6.46 1.57-1.97 2.35-4.25 2.35-6.83 0-2.39-.8-4.34-2.4-5.85-1.6-1.51-3.74-2.26-6.41-2.26-2.77 0-5.01.75-6.74 2.24s-2.58 3.49-2.58 6.01zm118.29 54.58h-37.99V3.46h37.99v7.04h-30.06v21.95h28.25v6.99h-28.25v25.08h30.06v7.09zm46.42 0V38.56c0-4.16-.95-7.27-2.84-9.32-1.9-2.05-4.86-3.08-8.9-3.08-5.34 0-9.26 1.44-11.75 4.33s-3.73 7.66-3.73 14.31v26.8h-7.74V20.52h6.29l1.26 6.99h.37c1.58-2.52 3.81-4.47 6.67-5.85s6.04-2.07 9.55-2.07c6.15 0 10.78 1.48 13.89 4.45 3.11 2.97 4.66 7.71 4.66 14.24v33.33h-7.73zm43.24.93c-7.55 0-13.51-2.3-17.88-6.9-4.37-4.6-6.55-10.98-6.55-19.16 0-8.23 2.03-14.78 6.08-19.62 4.05-4.85 9.5-7.27 16.34-7.27 6.4 0 11.47 2.11 15.2 6.32 3.73 4.21 5.59 9.77 5.59 16.66v4.89h-35.19c.16 6 1.67 10.55 4.54 13.66 2.87 3.11 6.92 4.66 12.14 4.66 5.5 0 10.94-1.15 16.31-3.45v6.9c-2.73 1.18-5.32 2.03-7.76 2.54s-5.37.77-8.82.77zm-2.1-46.47c-4.1 0-7.37 1.34-9.81 4.01-2.44 2.67-3.88 6.37-4.31 11.09h26.71c0-4.88-1.09-8.62-3.26-11.21-2.18-2.59-5.29-3.89-9.33-3.89zm55.44-6.48c2.27 0 4.3.19 6.11.56l-1.07 7.18c-2.11-.47-3.98-.7-5.59-.7-4.13 0-7.67 1.68-10.6 5.03s-4.4 7.54-4.4 12.54v27.41h-7.74V20.52h6.39l.89 9.46h.37c1.9-3.32 4.18-5.89 6.85-7.69 2.65-1.8 5.58-2.7 8.79-2.7zm55.11.93v4.89l-9.46 1.12c.87 1.09 1.65 2.51 2.33 4.26.68 1.76 1.03 3.74 1.03 5.94 0 5-1.71 9-5.13 11.98-3.42 2.98-8.11 4.48-14.08 4.48-1.52 0-2.95-.12-4.29-.37-3.29 1.74-4.94 3.93-4.94 6.57 0 1.4.58 2.43 1.72 3.1 1.15.67 3.12 1 5.92 1h9.04c5.53 0 9.78 1.17 12.75 3.5 2.97 2.33 4.45 5.72 4.45 10.16 0 5.66-2.27 9.97-6.81 12.93-4.54 2.97-11.16 4.45-19.86 4.45-6.68 0-11.83-1.24-15.45-3.73-3.62-2.49-5.43-6-5.43-10.53 0-3.11.99-5.8 2.98-8.06 1.99-2.27 4.79-3.81 8.39-4.61-1.3-.59-2.4-1.51-3.29-2.75-.89-1.24-1.33-2.69-1.33-4.33 0-1.86.5-3.5 1.49-4.89.99-1.4 2.56-2.75 4.71-4.06-2.64-1.09-4.79-2.94-6.46-5.55-1.66-2.61-2.49-5.59-2.49-8.95 0-5.59 1.68-9.9 5.03-12.93s8.11-4.54 14.26-4.54c2.67 0 5.08.31 7.22.93h17.7zm-40.74 59.67c0 2.77 1.17 4.86 3.5 6.29 2.33 1.43 5.67 2.14 10.02 2.14 6.49 0 11.3-.97 14.43-2.91 3.12-1.94 4.68-4.58 4.68-7.9 0-2.77-.86-4.68-2.56-5.76-1.71-1.07-4.93-1.61-9.65-1.61h-9.28c-3.51 0-6.25.84-8.2 2.52-1.96 1.68-2.94 4.09-2.94 7.23zm4.2-43.31c0 3.57 1.01 6.28 3.03 8.11s4.83 2.75 8.44 2.75c7.55 0 11.33-3.67 11.33-11 0-7.67-3.82-11.51-11.47-11.51-3.64 0-6.43.98-8.39 2.94-1.96 1.95-2.94 4.86-2.94 8.71z"/><path fill="#fff" d="M810.98 20.52h8.3l11.19 29.13c2.46 6.65 3.98 11.45 4.57 14.4h.37c.4-1.58 1.25-4.3 2.54-8.13 1.29-3.84 5.51-15.64 12.66-35.4h8.3l-21.95 58.17c-2.18 5.75-4.72 9.83-7.62 12.24-2.91 2.41-6.47 3.61-10.7 3.61-2.36 0-4.69-.26-6.99-.79v-6.2c1.71.37 3.62.56 5.73.56 5.31 0 9.1-2.98 11.37-8.95l2.84-7.27-20.61-51.37zm130.73 51.09h-9.04l-37.24-57.19h-.37c.5 6.71.75 12.86.75 18.46v38.73h-7.32V3.46h8.95l37.15 56.96h.37c-.06-.84-.2-3.53-.42-8.09-.22-4.55-.3-7.81-.23-9.77V3.46h7.41v68.15zm36.8.93c-7.55 0-13.51-2.3-17.88-6.9-4.37-4.6-6.55-10.98-6.55-19.16 0-8.23 2.03-14.78 6.08-19.62 4.05-4.85 9.5-7.27 16.34-7.27 6.4 0 11.47 2.11 15.2 6.32 3.73 4.21 5.59 9.77 5.59 16.66v4.89H962.1c.16 6 1.67 10.55 4.54 13.66 2.87 3.11 6.92 4.66 12.14 4.66 5.5 0 10.94-1.15 16.31-3.45v6.9c-2.73 1.18-5.32 2.03-7.76 2.54s-5.37.77-8.82.77zm-2.1-46.47c-4.1 0-7.37 1.34-9.81 4.01-2.44 2.67-3.88 6.37-4.31 11.09H989c0-4.88-1.09-8.62-3.26-11.21-2.18-2.59-5.29-3.89-9.33-3.89zm48.63 40.09c1.37 0 2.69-.1 3.96-.3 1.27-.2 2.28-.41 3.03-.63v5.92c-.84.4-2.07.74-3.71 1-1.63.26-3.1.4-4.41.4-9.88 0-14.82-5.2-14.82-15.61v-30.4h-7.32v-3.73l7.32-3.22 3.26-10.91h4.47v11.84h14.82v6.01h-14.82V56.6c0 3.08.73 5.44 2.19 7.08 1.48 1.65 3.48 2.48 6.03 2.48zm56.83 5.45-9.37-29.97c-.59-1.83-1.69-6-3.31-12.49h-.37c-1.24 5.44-2.33 9.63-3.26 12.58l-9.65 29.88h-8.95l-13.94-51.09h8.11c3.29 12.83 5.8 22.61 7.53 29.32 1.72 6.71 2.71 11.23 2.96 13.56h.37c.34-1.77.89-4.06 1.65-6.88.76-2.81 1.42-5.04 1.98-6.69l9.37-29.32h8.39l9.14 29.32c1.74 5.35 2.92 9.83 3.54 13.47h.37c.12-1.12.46-2.84 1-5.17s3.78-14.87 9.72-37.61h8.02l-14.12 51.09h-9.18zm73.99-25.59c0 8.33-2.1 14.83-6.29 19.51-4.19 4.68-9.99 7.01-17.39 7.01-4.57 0-8.62-1.07-12.17-3.22-3.54-2.14-6.28-5.22-8.2-9.23-1.93-4.01-2.89-8.7-2.89-14.08 0-8.33 2.08-14.81 6.25-19.46 4.16-4.65 9.94-6.97 17.34-6.97 7.15 0 12.83 2.38 17.04 7.13s6.31 11.2 6.31 19.31zm-38.92 0c0 6.53 1.31 11.5 3.92 14.92s6.45 5.13 11.51 5.13 8.91-1.7 11.54-5.1c2.63-3.4 3.94-8.38 3.94-14.94 0-6.49-1.31-11.43-3.94-14.8-2.63-3.37-6.5-5.06-11.63-5.06-5.06 0-8.89 1.66-11.47 4.99-2.58 3.32-3.87 8.27-3.87 14.86zm73.75-26.43c2.27 0 4.3.19 6.11.56l-1.07 7.18c-2.11-.47-3.98-.7-5.59-.7-4.13 0-7.67 1.68-10.6 5.03s-4.4 7.54-4.4 12.54v27.41h-7.74V20.52h6.39l.89 9.46h.37c1.9-3.32 4.18-5.89 6.85-7.69 2.65-1.8 5.59-2.7 8.79-2.7zm20.95 25.87c1.34-1.9 3.37-4.38 6.11-7.46l16.5-17.48h9.18l-20.7 21.77 22.14 29.32h-9.37l-18.04-24.14-5.83 5.03v19.11h-7.64V-.92h7.64v38.45c0 1.71-.12 4.35-.37 7.92h.38z"/></svg>