<?xml version="1.0" standalone="no"?>
<!DOCTYPE svg PUBLIC "-//W3C//DTD SVG 20010904//EN"
 "http://www.w3.org/TR/2001/REC-SVG-20010904/DTD/svg10.dtd">
<svg version="1.0" xmlns="http://www.w3.org/2000/svg"
 width="800.000000pt" height="800.000000pt" viewBox="0 0 800.000000 800.000000"
 preserveAspectRatio="xMidYMid meet">
<metadata>
Created by potrace 1.14, written by Peter Selinger 2001-2017
</metadata>
<g transform="translate(0.000000,800.000000) scale(0.100000,-0.100000)"
fill="#000000" stroke="none">
<path d="M600 4000 l0 -3400 620 0 620 0 0 3400 0 3400 -620 0 -620 0 0 -3400z"/>
<path d="M2700 6805 l0 -595 1300 0 1300 0 0 595 0 595 -1300 0 -1300 0 0
-595z"/>
<path d="M6160 4000 l0 -3400 620 0 620 0 0 3400 0 3400 -620 0 -620 0 0
-3400z"/>
<path d="M2700 4000 l0 -600 1300 0 1300 0 0 600 0 600 -1300 0 -1300 0 0
-600z"/>
<path d="M2700 1195 l0 -595 1300 0 1300 0 0 595 0 595 -1300 0 -1300 0 0
-595z"/>
</g>
</svg>
