<?xml version="1.0" standalone="no"?>
<!DOCTYPE svg PUBLIC "-//W3C//DTD SVG 20010904//EN"
 "http://www.w3.org/TR/2001/REC-SVG-20010904/DTD/svg10.dtd">
<svg version="1.0" xmlns="http://www.w3.org/2000/svg"
 width="966.000000pt" height="966.000000pt" viewBox="0 0 966.000000 966.000000"
 preserveAspectRatio="xMidYMid meet">
<metadata>
Created by potrace 1.14, written by Peter Selinger 2001-2017
</metadata>
<g transform="translate(0.000000,966.000000) scale(0.100000,-0.100000)"
fill="#000000" stroke="none">
<path d="M6267 8953 c-1 0 -67 -4 -147 -7 -80 -4 -161 -8 -180 -10 -19 -3 -62
-7 -95 -10 -82 -8 -155 -16 -185 -22 -14 -2 -43 -7 -65 -9 -22 -3 -47 -7 -55
-10 -8 -2 -35 -7 -60 -10 -25 -3 -58 -10 -75 -14 -25 -8 -70 -18 -191 -46 -73
-17 -310 -97 -389 -131 -22 -10 -43 -18 -46 -18 -10 -1 -263 -130 -269 -136
-3 -4 -34 -24 -70 -45 -36 -22 -72 -45 -80 -52 -8 -6 -46 -35 -85 -64 -38 -29
-86 -67 -105 -84 -69 -60 -250 -249 -256 -267 -3 -10 -9 -18 -13 -18 -9 0
-137 -177 -167 -230 -10 -19 -21 -37 -24 -40 -12 -12 -114 -211 -143 -280 -22
-52 -84 -212 -91 -235 -6 -21 -7 -21 -1624 -21 -1279 0 -1624 -2 -1648 -12
-65 -27 -64 -19 -64 -549 0 -512 0 -507 52 -546 27 -20 40 -20 1572 -20 l1546
0 0 -1229 0 -1228 -1555 -2 -1555 -3 -27 -28 -28 -27 -3 -478 c-2 -316 0 -489
8 -513 5 -21 22 -45 38 -55 26 -18 89 -19 1656 -19 l1628 -1 13 -34 c41 -115
90 -238 103 -257 8 -13 10 -23 6 -23 -5 0 -4 -4 1 -8 6 -4 30 -47 55 -97 40
-78 191 -322 209 -335 4 -3 34 -39 68 -80 57 -71 194 -211 256 -262 16 -13 42
-35 58 -50 16 -16 32 -28 34 -28 2 0 29 -19 59 -41 31 -23 86 -61 123 -85 81
-52 356 -189 398 -200 17 -4 35 -11 41 -15 35 -28 485 -156 505 -144 5 4 9 2
9 -3 0 -8 9 -11 48 -13 9 -1 33 -5 52 -9 34 -8 75 -15 150 -26 19 -3 49 -7 65
-9 17 -3 59 -7 95 -11 36 -3 79 -8 95 -10 192 -22 794 -23 965 0 14 2 57 7 95
11 127 12 140 14 170 19 17 3 72 12 123 21 148 25 370 78 432 103 14 5 27 9
30 9 41 -3 530 209 560 244 3 3 21 14 40 25 19 10 41 25 48 31 7 7 17 13 21
13 4 0 16 8 27 18 11 9 42 33 69 52 28 19 55 39 61 45 6 5 34 29 61 52 91 77
221 211 283 293 14 18 30 38 36 44 21 22 152 222 187 286 49 89 96 188 103
217 4 12 9 23 13 23 4 0 13 15 18 32 6 18 27 78 46 133 30 85 52 156 63 200 1
6 9 37 18 70 9 33 19 76 22 95 3 19 8 44 11 55 4 11 8 27 9 35 2 8 6 35 10 60
4 25 8 50 9 55 1 6 5 37 9 70 4 33 9 74 12 90 5 35 13 147 19 260 5 90 5 2772
1 2880 -3 72 -15 207 -22 260 -2 17 -6 53 -9 80 -3 28 -7 61 -10 75 -3 14 -8
41 -11 60 -3 19 -8 46 -10 60 -3 14 -7 34 -9 45 -8 48 -55 234 -70 280 -10 28
-18 55 -19 62 -1 7 -5 16 -9 19 -4 4 -7 17 -7 29 0 12 -3 25 -7 29 -6 5 -28
59 -37 91 -27 90 -209 430 -274 510 -4 6 -19 26 -32 45 -14 19 -29 40 -35 46
-5 6 -28 33 -50 60 -58 72 -285 294 -301 294 -8 0 -14 4 -14 8 0 5 -21 24 -47
42 -27 19 -50 37 -53 40 -3 4 -52 36 -110 71 -128 80 -251 142 -390 199 -58
23 -113 46 -122 51 -10 5 -26 9 -36 9 -10 0 -22 3 -26 8 -4 4 -11 7 -14 7 -7
1 -125 35 -187 54 -16 6 -64 17 -106 25 -42 9 -83 18 -90 20 -8 3 -30 7 -49
10 -19 3 -44 7 -55 10 -11 2 -40 7 -65 10 -25 3 -55 8 -67 10 -12 3 -48 7 -80
11 -32 3 -71 8 -88 11 -29 4 -71 7 -285 20 -88 5 -420 11 -423 7z m363 -1087
c108 -8 181 -16 210 -22 14 -3 39 -7 55 -9 48 -6 138 -26 163 -36 13 -5 32 -9
43 -9 10 0 27 -4 37 -9 9 -5 35 -14 57 -21 54 -16 178 -67 240 -97 51 -26 193
-115 236 -149 92 -73 299 -303 299 -334 0 -5 4 -10 9 -10 15 0 146 -278 174
-370 47 -150 77 -279 77 -329 0 -15 3 -31 7 -35 4 -3 8 -19 9 -34 1 -15 6 -72
10 -127 11 -129 12 -2729 1 -2855 -15 -161 -23 -217 -49 -330 -10 -47 -20 -92
-22 -100 -1 -8 -5 -22 -8 -30 -4 -8 -16 -46 -28 -85 -31 -101 -84 -218 -137
-303 -18 -29 -33 -55 -33 -58 0 -25 -188 -240 -281 -320 -51 -45 -183 -134
-197 -134 -7 0 -12 -4 -12 -8 0 -7 -116 -64 -205 -102 -51 -22 -219 -73 -275
-84 -220 -42 -228 -43 -375 -53 -175 -12 -472 -6 -595 12 -14 2 -43 5 -65 8
-99 13 -288 58 -355 84 -8 3 -22 7 -32 9 -78 16 -418 200 -418 227 0 6 -3 8
-6 4 -11 -11 -206 175 -260 248 -16 22 -31 42 -34 45 -16 14 -111 174 -138
230 -39 82 -92 220 -85 220 3 0 1 6 -5 13 -7 9 -34 100 -46 162 -2 6 -8 35
-15 66 -6 30 -13 75 -16 100 -2 24 -4 44 -5 44 -3 0 -8 36 -15 125 -11 120
-11 2714 -1 2835 11 132 15 167 20 195 3 13 8 40 11 60 12 82 41 202 67 280
12 36 23 67 23 70 0 3 11 27 23 54 12 27 22 51 22 53 0 12 35 79 44 85 6 4 7
8 3 8 -5 0 1 12 12 26 12 15 21 31 21 37 0 11 106 161 147 208 66 75 178 179
192 179 6 0 11 4 11 9 0 21 216 149 348 205 45 19 83 35 85 35 1 0 9 2 17 5
149 53 389 99 595 112 50 4 91 7 92 8 5 4 286 -2 353 -8z"/>
</g>
</svg>
