<svg xmlns="http://www.w3.org/2000/svg" xml:space="preserve" id="Layer_2" x="0" y="0" style="enable-background:new 0 0 702.12 808.21" version="1.1" viewBox="0 0 702.12 808.21"><style>.st0{fill:#cb2027}</style><path d="m12.9 590.18 178.45-111.81 76.56-43.75 28.12-13.28 29.69-18.75 8.04 16.07-18.19 10.5s-3.8 2.34-9.27 7.81-25.75 20.98-34.33 27.66c-12.4 8.58-28.29 17.17-28.29 17.17s-76.16 39.59-114.44 59.13-113.67 56.98-113.67 56.98l-2.67-7.73zM682.54 596.31l-186.06-98.64-76.17-44.43-25.56-17.72-31.08-16.34 9.89-14.99 18.19 10.51s3.93 2.12 11.4 4.12c7.47 2 31.04 11.81 41.12 15.9 13.63 6.45 29.01 15.92 29.01 15.92s72.37 46.16 108.42 69.54c36.06 23.39 106.19 69.94 106.19 69.94l-5.35 6.19zM354.41 13.36l7.6 210.45-.39 88.18-2.56 31 1.39 35.09-17.93-1.08.01-21.01s-.13-4.46-2.13-11.93-5.3-32.79-6.78-43.56c-1.23-15.03-.72-33.08-.72-33.08s3.79-85.75 6.01-128.67c2.23-42.92 7.48-126.94 7.48-126.94l8.02 1.55z" class="st0"/><circle cx="350.4" cy="399.15" r="2.84" class="st0"/></svg>