<svg xmlns="http://www.w3.org/2000/svg" xml:space="preserve" style="enable-background:new 0 0 178 101" viewBox="0 0 178 101"><path d="M48.03 23.32c0 6.9-2.35 12.21-7.06 15.92-4.71 3.71-11.44 5.57-20.21 5.57h-8.02v26.8H4.82V3.46h17.67c17.03 0 25.54 6.62 25.54 19.86zM12.75 38h7.13c7.02 0 12.1-1.13 15.24-3.4 3.14-2.27 4.71-5.9 4.71-10.91 0-4.51-1.48-7.86-4.43-10.07-2.95-2.21-7.55-3.31-13.8-3.31h-8.86V38zM97.9 71.61H59.91V3.46H97.9v7.04H67.83v21.95h28.25v6.99H67.83v25.08H97.9v7.09zM163.84 71.61h-9.04l-37.24-57.19h-.37c.5 6.71.75 12.86.75 18.46v38.73h-7.32V3.46h8.95l37.15 56.96h.37c-.06-.84-.2-3.53-.42-8.09-.22-4.55-.3-7.81-.23-9.77V3.46h7.41v68.15z" fill="#fff"/></svg>