<?xml version="1.0" encoding="utf-8"?>
<!-- Generator: Adobe Illustrator 26.5.0, SVG Export Plug-In . SVG Version: 6.00 Build 0)  -->
<svg version="1.1" id="Layer_1" xmlns="http://www.w3.org/2000/svg" xmlns:xlink="http://www.w3.org/1999/xlink" x="0px" y="0px"
	 viewBox="0 0 1487 404" style="enable-background:new 0 0 1487 404;" xml:space="preserve">
<style type="text/css">
	.st0{fill:#FFFFFF;}
</style>
<g>
	<path class="st0" d="M61.48,152.17c-18.76,0-32.87-4.54-42.32-13.64c-9.45-9.09-14.18-22.16-14.18-39.21V59.15
		c0-17.19,4.73-30.29,14.18-39.31S42.72,6.3,61.48,6.3c18.91,0,33.12,4.51,42.64,13.53c9.52,9.02,14.29,22.13,14.29,39.31v40.17
		c0,17.05-4.76,30.11-14.29,39.21C94.6,147.63,80.39,152.17,61.48,152.17z M61.48,129.61c10.31,0,18.05-2.69,23.2-8.06
		c5.16-5.37,7.73-13.21,7.73-23.52v-37.6c0-10.31-2.58-18.15-7.73-23.52c-5.16-5.37-12.89-8.06-23.2-8.06
		c-10.03,0-17.65,2.69-22.88,8.06c-5.23,5.37-7.84,13.21-7.84,23.52v37.6c0,10.31,2.61,18.15,7.84,23.52
		C43.83,126.93,51.46,129.61,61.48,129.61z"/>
	<path class="st0" d="M147.63,189.34c-1.58,0-2.36-0.86-2.36-2.58V69.46c0-3.72-0.14-7.59-0.43-11.6
		c-0.29-4.01-0.64-7.73-1.07-11.17c-0.14-1.86,0.71-2.79,2.58-2.79h18.05c1.57,0,2.5,0.72,2.79,2.15c0.29,1.15,0.57,2.65,0.86,4.51
		c0.29,1.86,0.5,3.73,0.64,5.59c0.14,1.86,0.21,3.37,0.21,4.51l1.72,12.03v114.07c0,1.72-0.86,2.58-2.58,2.58H147.63z
		 M198.11,152.17c-5.01,0-10.42-0.68-16.22-2.04c-5.8-1.36-10.63-3.19-14.5-5.48l-0.43-20.19c3.72,2.15,7.73,3.76,12.03,4.83
		c4.3,1.07,8.3,1.61,12.03,1.61c6.87,0,11.89-2.07,15.04-6.23c3.15-4.15,4.73-10.31,4.73-18.48V83.64c0-7.02-1.22-12.17-3.65-15.47
		c-2.44-3.29-6.23-4.94-11.39-4.94c-4.59,0-9.13,1.36-13.64,4.08c-4.51,2.72-9.92,6.95-16.22,12.68l-1.07-18.91
		c4.15-4.01,8.27-7.48,12.35-10.42c4.08-2.93,8.34-5.23,12.78-6.88c4.44-1.64,9.31-2.47,14.61-2.47c10.45,0,18.33,3.11,23.63,9.35
		c5.3,6.23,7.95,15.86,7.95,28.89v29.22c0,14.61-3.26,25.49-9.77,32.65C219.84,148.59,210.43,152.17,198.11,152.17z"/>
	<path class="st0" d="M305.09,152.17c-15.47,0-27.07-3.4-34.8-10.2c-7.73-6.8-11.6-16.93-11.6-30.4V84.72
		c0-14.18,3.83-24.95,11.49-32.33c7.66-7.37,19.23-11.06,34.7-11.06c15.18,0,26.64,3.58,34.37,10.74
		c7.73,7.16,11.6,17.62,11.6,31.37v16.76c0,1.72-0.86,2.58-2.58,2.58h-64.45v6.66c0,7.73,1.68,13.43,5.05,17.08
		c3.36,3.65,8.92,5.48,16.65,5.48c5.73,0,10.2-0.93,13.43-2.79c3.22-1.86,4.83-4.65,4.83-8.38c0-1.72,0.86-2.58,2.58-2.58h19.76
		c1.57,0,2.43,0.79,2.58,2.36c0.43,10.31-3.12,18.15-10.63,23.52C330.55,149.49,319.56,152.17,305.09,152.17z M283.83,85.57h41.89
		V84.5c0-7.88-1.69-13.68-5.05-17.4c-3.37-3.72-8.56-5.59-15.58-5.59c-7.3,0-12.67,1.9-16.11,5.69c-3.44,3.8-5.16,9.63-5.16,17.51
		V85.57z"/>
	<path class="st0" d="M377.71,149.59c-1.58,0-2.36-0.86-2.36-2.58V70.75c0-4.15-0.18-8.41-0.54-12.78
		c-0.36-4.37-0.68-8.06-0.97-11.06c-0.29-2,0.57-3.01,2.58-3.01h18.05c1.43,0,2.36,0.72,2.79,2.15c0.29,1.29,0.57,3.04,0.86,5.26
		c0.29,2.22,0.57,4.55,0.86,6.98c0.29,2.44,0.43,4.59,0.43,6.45l1.29,8.59v73.69c0,1.72-0.86,2.58-2.58,2.58H377.71z M445.16,149.59
		c-1.72,0-2.58-0.86-2.58-2.58V80.85c0-6.02-1.22-10.45-3.65-13.32c-2.44-2.86-6.16-4.3-11.17-4.3c-5.01,0-9.92,1.47-14.72,4.4
		c-4.8,2.94-10.28,7.49-16.43,13.64l-0.86-18.48c4.15-4.58,8.34-8.45,12.57-11.6c4.22-3.15,8.63-5.59,13.21-7.3
		c4.58-1.72,9.59-2.58,15.04-2.58c10.31,0,18.12,2.9,23.42,8.7c5.3,5.8,7.95,14.72,7.95,26.75v70.25c0,1.72-0.86,2.58-2.58,2.58
		H445.16z"/>
	<path class="st0" d="M543.55,149.59c-1.58,0-2.36-0.86-2.36-2.58V11.46c0-1.72,0.79-2.58,2.36-2.58h39.96
		c18.62,0,32.33,3.9,41.14,11.71c8.81,7.81,13.21,19.23,13.21,34.27c0,14.61-4.51,25.85-13.53,33.73
		c-9.02,7.88-22.56,11.82-40.6,11.82h-16.76v46.62c0,1.72-0.86,2.58-2.58,2.58H543.55z M566.96,78.49h16.33
		c9.74,0,16.97-1.86,21.7-5.59c4.73-3.72,7.09-9.67,7.09-17.83c0-8.59-2.36-14.79-7.09-18.58c-4.73-3.79-12.03-5.69-21.91-5.69
		h-16.11V78.49z"/>
	<path class="st0" d="M703.81,152.17c-15.18,0-26.89-3.65-35.12-10.96c-8.24-7.3-12.35-18.26-12.35-32.87v-23.2
		c0-14.61,4.08-25.56,12.25-32.87c8.16-7.3,19.91-10.96,35.23-10.96c15.18,0,26.85,3.65,35.02,10.96
		c8.16,7.3,12.25,18.26,12.25,32.87v23.2c0,14.61-4.05,25.56-12.14,32.87C730.84,148.52,719.13,152.17,703.81,152.17z
		 M703.81,130.47c7.73,0,13.32-1.97,16.76-5.91c3.44-3.94,5.16-10.13,5.16-18.58V87.51c0-8.45-1.72-14.64-5.16-18.58
		c-3.44-3.94-9.02-5.91-16.76-5.91s-13.36,1.97-16.86,5.91c-3.51,3.94-5.26,10.13-5.26,18.58v18.48c0,8.45,1.75,14.65,5.26,18.58
		C690.45,128.51,696.08,130.47,703.81,130.47z"/>
	<path class="st0" d="M800.7,149.59c-1.43,0-2.36-0.71-2.79-2.15L766.11,46.69c-0.43-1.86,0.29-2.79,2.15-2.79h21.48
		c1.43,0,2.36,0.72,2.79,2.15l13.96,52.42c1.14,4.73,2.26,9.38,3.33,13.96c1.07,4.59,2.11,9.24,3.11,13.96h0.64
		c1.29-4.44,2.61-8.92,3.97-13.43c1.36-4.51,2.69-8.99,3.97-13.43l8.81-29.43l-5.37-21.05c-0.43-2,0.29-3.01,2.15-3.01h18.91
		c1.43,0,2.36,0.72,2.79,2.15l12.89,50.91c1,4.59,2.04,9.13,3.12,13.64s2.11,9.06,3.12,13.64h0.64c0.86-4.73,1.86-9.45,3.01-14.18
		c1.15-4.73,2.29-9.31,3.44-13.75l13.96-52.42c0.43-1.43,1.36-2.15,2.79-2.15h21.48c1.86,0,2.5,0.93,1.93,2.79l-31.58,100.75
		c-0.43,1.43-1.36,2.15-2.79,2.15h-23.85c-1.29,0-2.15-0.71-2.58-2.15l-5.59-18.26c-1.43-4.73-2.72-9.63-3.87-14.72
		c-1.15-5.08-2.29-10.77-3.44-17.08h-0.64c-1.15,6.3-2.4,11.92-3.76,16.86c-1.36,4.94-2.76,9.77-4.19,14.5l-5.8,18.69
		c-0.43,1.43-1.36,2.15-2.79,2.15H800.7z"/>
	<path class="st0" d="M976.43,152.17c-15.47,0-27.07-3.4-34.8-10.2c-7.73-6.8-11.6-16.93-11.6-30.4V84.72
		c0-14.18,3.83-24.95,11.49-32.33c7.66-7.37,19.23-11.06,34.7-11.06c15.18,0,26.64,3.58,34.37,10.74
		c7.73,7.16,11.6,17.62,11.6,31.37v16.76c0,1.72-0.86,2.58-2.58,2.58h-64.45v6.66c0,7.73,1.68,13.43,5.05,17.08
		c3.36,3.65,8.92,5.48,16.65,5.48c5.73,0,10.2-0.93,13.43-2.79c3.22-1.86,4.83-4.65,4.83-8.38c0-1.72,0.86-2.58,2.58-2.58h19.76
		c1.57,0,2.43,0.79,2.58,2.36c0.43,10.31-3.12,18.15-10.63,23.52C1001.89,149.49,990.89,152.17,976.43,152.17z M955.16,85.57h41.89
		V84.5c0-7.88-1.69-13.68-5.05-17.4c-3.37-3.72-8.56-5.59-15.58-5.59c-7.3,0-12.67,1.9-16.11,5.69c-3.44,3.8-5.16,9.63-5.16,17.51
		V85.57z"/>
	<path class="st0" d="M1049.04,149.59c-1.58,0-2.36-0.86-2.36-2.58V70.32c0-4.3-0.11-8.38-0.32-12.25
		c-0.21-3.87-0.61-7.73-1.18-11.6c-0.29-1.72,0.57-2.58,2.58-2.58h18.05c1.57,0,2.5,0.72,2.79,2.15c0.57,2.58,1,5.52,1.29,8.81
		c0.29,3.3,0.43,6.23,0.43,8.81l1.72,12.46v70.89c0,1.72-0.86,2.58-2.58,2.58H1049.04z M1069.66,85.57l-1.29-21.91
		c3.01-4.3,6.41-8.13,10.2-11.49c3.79-3.36,7.66-6.02,11.6-7.95c3.94-1.93,7.55-2.9,10.85-2.9c2.43,0,4.3,0.21,5.59,0.64
		c1.43,0.43,2.15,1.36,2.15,2.79c0.14,3.44,0.18,7.13,0.11,11.06c-0.07,3.94-0.32,7.63-0.75,11.06c-0.29,1.86-1.29,2.58-3.01,2.15
		c-1-0.14-2.15-0.29-3.44-0.43c-1.29-0.14-2.58-0.21-3.87-0.21c-3.15,0-6.41,0.68-9.78,2.04c-3.37,1.36-6.59,3.33-9.67,5.91
		C1075.28,78.92,1072.38,82,1069.66,85.57z"/>
	<path class="st0" d="M9.92,353.59c-1.58,0-2.36-0.86-2.36-2.58V215.46c0-1.72,0.79-2.58,2.36-2.58H92.2c1.57,0,2.36,0.86,2.36,2.58
		v17.62c0,1.72-0.79,2.58-2.36,2.58H33.34v35.88h53.71c1.58,0,2.36,0.86,2.36,2.58v16.54c0,1.72-0.79,2.58-2.36,2.58H33.34v37.6
		H92.2c1.57,0,2.36,0.86,2.36,2.58v17.62c0,1.72-0.79,2.58-2.36,2.58H9.92z"/>
	<path class="st0" d="M123.57,353.59c-1.58,0-2.36-0.86-2.36-2.58v-76.26c0-4.15-0.18-8.41-0.54-12.78
		c-0.36-4.37-0.68-8.06-0.97-11.06c-0.29-2,0.57-3.01,2.58-3.01h18.05c1.43,0,2.36,0.72,2.79,2.15c0.29,1.29,0.57,3.04,0.86,5.26
		c0.29,2.22,0.57,4.55,0.86,6.98c0.29,2.44,0.43,4.59,0.43,6.45l1.29,8.59v73.69c0,1.72-0.86,2.58-2.58,2.58H123.57z M191.03,353.59
		c-1.72,0-2.58-0.86-2.58-2.58v-66.17c0-6.02-1.22-10.45-3.65-13.32c-2.44-2.86-6.16-4.3-11.17-4.3c-5.01,0-9.92,1.47-14.72,4.4
		c-4.8,2.94-10.28,7.49-16.43,13.64l-0.86-18.48c4.15-4.58,8.34-8.45,12.57-11.6c4.22-3.15,8.63-5.59,13.21-7.3
		c4.58-1.72,9.59-2.58,15.04-2.58c10.31,0,18.12,2.9,23.42,8.7c5.3,5.8,7.95,14.72,7.95,26.75v70.25c0,1.72-0.86,2.58-2.58,2.58
		H191.03z"/>
	<path class="st0" d="M284.9,356.17c-15.47,0-27.07-3.4-34.8-10.2c-7.73-6.8-11.6-16.93-11.6-30.4v-26.85
		c0-14.18,3.83-24.95,11.49-32.33c7.66-7.37,19.23-11.06,34.7-11.06c15.18,0,26.64,3.58,34.37,10.74
		c7.73,7.16,11.6,17.62,11.6,31.37v16.76c0,1.72-0.86,2.58-2.58,2.58h-64.45v6.66c0,7.73,1.68,13.43,5.05,17.08
		c3.36,3.65,8.92,5.48,16.65,5.48c5.73,0,10.2-0.93,13.43-2.79c3.22-1.86,4.83-4.65,4.83-8.38c0-1.72,0.86-2.58,2.58-2.58h19.76
		c1.57,0,2.43,0.79,2.58,2.36c0.43,10.31-3.12,18.15-10.63,23.52C310.36,353.49,299.37,356.17,284.9,356.17z M263.64,289.57h41.89
		v-1.07c0-7.88-1.69-13.68-5.05-17.4c-3.37-3.72-8.56-5.59-15.58-5.59c-7.3,0-12.67,1.9-16.11,5.69c-3.44,3.8-5.16,9.63-5.16,17.51
		V289.57z"/>
	<path class="st0" d="M357.52,353.59c-1.58,0-2.36-0.86-2.36-2.58v-76.69c0-4.3-0.11-8.38-0.32-12.25
		c-0.21-3.87-0.61-7.73-1.18-11.6c-0.29-1.72,0.57-2.58,2.58-2.58h18.05c1.57,0,2.5,0.72,2.79,2.15c0.57,2.58,1,5.52,1.29,8.81
		c0.29,3.3,0.43,6.23,0.43,8.81l1.72,12.46v70.89c0,1.72-0.86,2.58-2.58,2.58H357.52z M378.14,289.57l-1.29-21.91
		c3.01-4.3,6.41-8.13,10.2-11.49c3.79-3.36,7.66-6.02,11.6-7.95c3.94-1.93,7.55-2.9,10.85-2.9c2.43,0,4.3,0.21,5.59,0.64
		c1.43,0.43,2.15,1.36,2.15,2.79c0.14,3.44,0.18,7.13,0.11,11.06c-0.07,3.94-0.32,7.63-0.75,11.06c-0.29,1.86-1.29,2.58-3.01,2.15
		c-1-0.14-2.15-0.29-3.44-0.43c-1.29-0.14-2.58-0.21-3.87-0.21c-3.15,0-6.41,0.68-9.78,2.04c-3.37,1.36-6.59,3.33-9.67,5.91
		C383.76,282.92,380.86,286,378.14,289.57z"/>
	<path class="st0" d="M471.59,395.92c-17.33,0-29.86-2.22-37.59-6.66c-7.73-4.44-11.6-11.1-11.6-19.98c0-5.44,1.32-10.31,3.97-14.61
		c2.65-4.3,6.91-7.88,12.78-10.74l19.33,6.23c-3.58,1.15-6.2,2.97-7.84,5.48c-1.65,2.5-2.47,5.33-2.47,8.49
		c0,4.44,1.79,7.55,5.37,9.34c3.58,1.79,10.02,2.76,19.33,2.9c10.02,0,16.83-0.9,20.41-2.69c3.58-1.79,5.37-5.12,5.37-9.99
		c0-3.3-0.83-5.73-2.47-7.3c-1.65-1.58-4.26-2.44-7.84-2.58l-39.1-2.58c-5.44-0.29-9.99-2.07-13.64-5.37
		c-3.65-3.29-5.48-8.16-5.48-14.61c0-4.73,1.07-8.81,3.22-12.25c2.15-3.44,5.87-6.95,11.17-10.53l15.47,7.09
		c-2.87,1-4.91,2.33-6.12,3.97c-1.22,1.65-1.83,3.4-1.83,5.26c0,2.01,0.68,3.47,2.04,4.4c1.36,0.93,3.54,1.47,6.55,1.61l34.59,2.15
		c9.88,0.72,17.08,3.62,21.59,8.7c4.51,5.09,6.77,12.42,6.77,22.02c0,11.31-4.12,19.51-12.35,24.6
		C502.99,393.37,489.78,395.92,471.59,395.92z M473.74,319.44c-14.18,0-24.71-3.04-31.58-9.13c-6.87-6.09-10.31-15.36-10.31-27.82
		c0-12.6,3.44-21.95,10.31-28.04c6.88-6.09,17.54-9.13,32.01-9.13c14.03,0,24.42,3.04,31.15,9.13c6.73,6.09,10.1,15.5,10.1,28.25
		c0,12.46-3.37,21.7-10.1,27.71C498.59,316.43,488.06,319.44,473.74,319.44z M473.74,299.67c6.45,0,10.92-1.29,13.43-3.87
		c2.5-2.58,3.76-7.02,3.76-13.32c0-6.3-1.26-10.81-3.76-13.53c-2.51-2.72-6.98-4.08-13.43-4.08c-6.44,0-10.96,1.36-13.53,4.08
		c-2.58,2.72-3.87,7.23-3.87,13.53c0,6.3,1.29,10.74,3.87,13.32S467.29,299.67,473.74,299.67z M502.1,257.35l-18.26-7.09
		c0.43-6.02,0.97-11.28,1.61-15.79c0.64-4.51,1.25-8.41,1.83-11.71c0.43-1.72,1.29-2.58,2.58-2.58h17.19c2,0,2.72,0.93,2.15,2.79
		c-1.58,4.73-2.9,9.7-3.97,14.93C504.14,243.14,503.1,249.62,502.1,257.35z"/>
	<path class="st0" d="M555.59,393.34c-2.01,0-2.65-1-1.93-3.01l14.61-37.6l-39.1-102.04c-0.86-1.86-0.29-2.79,1.72-2.79h22.13
		c1.43,0,2.36,0.64,2.79,1.93l15.47,44.25c1.57,4.44,3.08,9.13,4.51,14.07c1.43,4.94,2.79,9.92,4.08,14.93h0.43
		c1.43-5.01,2.9-9.95,4.4-14.82c1.5-4.87,2.97-9.59,4.4-14.18l15.47-44.25c0.43-1.29,1.36-1.93,2.79-1.93h21.48
		c2.15,0,2.86,0.93,2.15,2.79L578.36,391.4c-0.57,1.29-1.5,1.93-2.79,1.93H555.59z"/>
	<path class="st0" d="M696.73,353.59c-1.58,0-2.36-0.86-2.36-2.58V215.46c0-1.72,0.79-2.58,2.36-2.58h30.51
		c1.43,0,2.43,0.57,3.01,1.72l34.59,69.82c2.43,4.73,4.69,9.27,6.77,13.64c2.07,4.37,3.97,8.59,5.69,12.67
		c1.72,4.08,3.22,7.84,4.51,11.28h0.43c-0.14-3.87-0.29-8.06-0.43-12.57c-0.14-4.51-0.25-9.06-0.32-13.64
		c-0.07-4.58-0.11-8.73-0.11-12.46v-67.89c0-1.72,0.79-2.58,2.36-2.58h20.19c1.72,0,2.58,0.86,2.58,2.58v135.56
		c0,1.72-0.86,2.58-2.58,2.58h-30.08c-1.43,0-2.44-0.57-3.01-1.72l-33.51-67.46c-2.15-4.3-4.26-8.7-6.34-13.21
		c-2.08-4.51-4.08-9.02-6.01-13.53s-3.76-8.7-5.48-12.57h-0.64c0.14,4.44,0.29,8.95,0.43,13.53c0.14,4.59,0.21,9.17,0.21,13.75
		c0,4.59,0,9.17,0,13.75v64.88c0,1.72-0.86,2.58-2.58,2.58H696.73z"/>
	<path class="st0" d="M879.55,356.17c-15.47,0-27.07-3.4-34.8-10.2c-7.73-6.8-11.6-16.93-11.6-30.4v-26.85
		c0-14.18,3.83-24.95,11.49-32.33c7.66-7.37,19.23-11.06,34.7-11.06c15.18,0,26.64,3.58,34.37,10.74
		c7.73,7.16,11.6,17.62,11.6,31.37v16.76c0,1.72-0.86,2.58-2.58,2.58h-64.45v6.66c0,7.73,1.68,13.43,5.05,17.08
		c3.36,3.65,8.92,5.48,16.65,5.48c5.73,0,10.2-0.93,13.43-2.79c3.22-1.86,4.83-4.65,4.83-8.38c0-1.72,0.86-2.58,2.58-2.58h19.76
		c1.57,0,2.43,0.79,2.58,2.36c0.43,10.31-3.12,18.15-10.63,23.52C905,353.49,894.01,356.17,879.55,356.17z M858.28,289.57h41.89
		v-1.07c0-7.88-1.69-13.68-5.05-17.4c-3.37-3.72-8.56-5.59-15.58-5.59c-7.3,0-12.67,1.9-16.11,5.69c-3.44,3.8-5.16,9.63-5.16,17.51
		V289.57z"/>
	<path class="st0" d="M990.18,356.17c-8.31,0-14.93-1.29-19.87-3.87c-4.94-2.58-8.52-6.59-10.74-12.03
		c-2.22-5.44-3.33-12.39-3.33-20.84v-50.27h-15.9c-1.58,0-2.36-0.86-2.36-2.58v-16.33c0-1.57,0.79-2.36,2.36-2.36h16.76l2.79-25.78
		c0.29-1.57,1.22-2.36,2.79-2.36h16.33c1.72,0,2.58,0.79,2.58,2.36v25.78h29.43c1.72,0,2.58,0.79,2.58,2.36v16.33
		c0,1.72-0.86,2.58-2.58,2.58h-29.43v48.98c0,5.73,1.07,9.88,3.22,12.46c2.15,2.58,5.73,3.87,10.74,3.87c2.58,0,5.19-0.29,7.84-0.86
		c2.65-0.57,5.12-1.36,7.41-2.36c2-0.71,3.01-0.07,3.01,1.93v16.54c0,1.43-0.64,2.36-1.93,2.79c-2.87,1.14-6.12,2.04-9.78,2.69
		C998.46,355.85,994.48,356.17,990.18,356.17z"/>
	<path class="st0" d="M1058.93,353.59c-1.43,0-2.36-0.71-2.79-2.15l-31.79-100.75c-0.43-1.86,0.29-2.79,2.15-2.79h21.48
		c1.43,0,2.36,0.72,2.79,2.15l13.96,52.42c1.14,4.73,2.26,9.38,3.33,13.96c1.07,4.59,2.11,9.24,3.11,13.96h0.64
		c1.29-4.44,2.61-8.92,3.97-13.43c1.36-4.51,2.69-8.99,3.97-13.43l8.81-29.43l-5.37-21.05c-0.43-2,0.29-3.01,2.15-3.01h18.91
		c1.43,0,2.36,0.72,2.79,2.15l12.89,50.91c1,4.59,2.04,9.13,3.12,13.64s2.11,9.06,3.12,13.64h0.64c0.86-4.73,1.86-9.45,3.01-14.18
		c1.15-4.73,2.29-9.31,3.44-13.75l13.96-52.42c0.43-1.43,1.36-2.15,2.79-2.15h21.48c1.86,0,2.5,0.93,1.93,2.79l-31.58,100.75
		c-0.43,1.43-1.36,2.15-2.79,2.15h-23.85c-1.29,0-2.15-0.71-2.58-2.15l-5.59-18.26c-1.43-4.73-2.72-9.63-3.87-14.72
		c-1.15-5.08-2.29-10.77-3.44-17.08h-0.64c-1.15,6.3-2.4,11.92-3.76,16.86c-1.36,4.94-2.76,9.77-4.19,14.5l-5.8,18.69
		c-0.43,1.43-1.36,2.15-2.79,2.15H1058.93z"/>
	<path class="st0" d="M1235.73,356.17c-15.18,0-26.89-3.65-35.12-10.96c-8.24-7.3-12.35-18.26-12.35-32.87v-23.2
		c0-14.61,4.08-25.56,12.25-32.87c8.16-7.3,19.91-10.96,35.23-10.96c15.18,0,26.85,3.65,35.02,10.96
		c8.16,7.3,12.25,18.26,12.25,32.87v23.2c0,14.61-4.05,25.56-12.14,32.87C1262.76,352.52,1251.06,356.17,1235.73,356.17z
		 M1235.73,334.47c7.73,0,13.32-1.97,16.76-5.91c3.44-3.94,5.16-10.13,5.16-18.58v-18.48c0-8.45-1.72-14.64-5.16-18.58
		c-3.44-3.94-9.02-5.91-16.76-5.91s-13.36,1.97-16.86,5.91c-3.51,3.94-5.26,10.13-5.26,18.58v18.48c0,8.45,1.75,14.65,5.26,18.58
		C1222.38,332.51,1228,334.47,1235.73,334.47z"/>
	<path class="st0" d="M1309.85,353.59c-1.58,0-2.36-0.86-2.36-2.58v-76.69c0-4.3-0.11-8.38-0.32-12.25
		c-0.21-3.87-0.61-7.73-1.18-11.6c-0.29-1.72,0.57-2.58,2.58-2.58h18.05c1.57,0,2.5,0.72,2.79,2.15c0.57,2.58,1,5.52,1.29,8.81
		c0.29,3.3,0.43,6.23,0.43,8.81l1.72,12.46v70.89c0,1.72-0.86,2.58-2.58,2.58H1309.85z M1330.47,289.57l-1.29-21.91
		c3.01-4.3,6.41-8.13,10.2-11.49c3.79-3.36,7.66-6.02,11.6-7.95c3.94-1.93,7.55-2.9,10.85-2.9c2.43,0,4.3,0.21,5.59,0.64
		c1.43,0.43,2.15,1.36,2.15,2.79c0.14,3.44,0.18,7.13,0.11,11.06c-0.07,3.94-0.32,7.63-0.75,11.06c-0.29,1.86-1.29,2.58-3.01,2.15
		c-1-0.14-2.15-0.29-3.44-0.43c-1.29-0.14-2.58-0.21-3.87-0.21c-3.15,0-6.41,0.68-9.78,2.04c-3.37,1.36-6.59,3.33-9.67,5.91
		C1336.09,282.92,1333.19,286,1330.47,289.57z"/>
	<path class="st0" d="M1388.26,353.59c-1.58,0-2.36-0.86-2.36-2.58V209.44c0-1.72,0.79-2.58,2.36-2.58h20.41
		c1.72,0,2.58,0.86,2.58,2.58v52.63c0,4.87-0.04,9.77-0.11,14.72c-0.07,4.94-0.25,9.92-0.54,14.93h0.43
		c2.43-3.29,4.9-6.52,7.41-9.67c2.5-3.15,5.05-6.23,7.63-9.24l20.62-23.63c0.71-0.86,1.64-1.29,2.79-1.29h25.99
		c1,0,1.64,0.29,1.93,0.86c0.29,0.57,0.07,1.29-0.64,2.15l-35.66,39.31l38.67,60.37c0.57,0.86,0.68,1.58,0.32,2.15
		c-0.36,0.57-0.97,0.86-1.83,0.86h-24.06c-1.29,0-2.29-0.57-3.01-1.72l-27.71-44.04l-12.25,13.32v29.86c0,1.72-0.86,2.58-2.58,2.58
		H1388.26z"/>
</g>
</svg>
