<svg xmlns="http://www.w3.org/2000/svg" xml:space="preserve" style="enable-background:new 0 0 366 372" viewBox="0 0 366 372"><path d="M39.1 1.13c10.88 0 19.98 3.63 27.31 10.89 7.33 7.26 10.99 16.19 10.99 26.81 0 10.51-3.66 19.43-10.97 26.76-7.31 7.32-16.23 10.99-26.75 10.99-10.65 0-19.64-3.65-26.97-10.94-7.32-7.3-10.98-16.12-10.98-26.47 0-6.9 1.67-13.3 5.01-19.19 3.34-5.89 7.89-10.51 13.66-13.84 5.75-3.34 11.99-5.01 18.7-5.01zm.32 6.99c-5.31 0-10.35 1.38-15.11 4.15-4.76 2.77-8.48 6.5-11.15 11.19-2.67 4.69-4.01 9.92-4.01 15.69 0 8.54 2.96 15.74 8.88 21.62 5.92 5.88 13.05 8.82 21.4 8.82 5.57 0 10.73-1.35 15.48-4.06 4.74-2.7 8.44-6.4 11.1-11.09C68.67 49.75 70 44.54 70 38.8c0-5.7-1.33-10.86-3.99-15.47s-6.4-8.3-11.22-11.07c-4.84-2.76-9.96-4.14-15.37-4.14zM87.29 21.64h6.84v9.77c2.7-3.71 5.8-6.49 9.32-8.35 3.51-1.86 7.43-2.78 11.76-2.78 7.54 0 14 2.72 19.37 8.15 5.37 5.44 8.05 11.98 8.05 19.63 0 7.81-2.66 14.45-7.98 19.9-5.32 5.45-11.73 8.18-19.24 8.18-4.23 0-8.11-.88-11.66-2.64-3.54-1.76-6.75-4.38-9.61-7.86V94.2H87.3V21.64zm27.34 5.23c-5.91 0-10.89 2.07-14.93 6.19-4.04 4.13-6.06 9.27-6.06 15.41 0 4.03.9 7.66 2.7 10.88 1.8 3.22 4.38 5.77 7.75 7.66 3.36 1.89 6.91 2.83 10.64 2.83 3.67 0 7.12-.95 10.35-2.85 3.23-1.9 5.81-4.56 7.72-7.97 1.92-3.41 2.87-6.99 2.87-10.73 0-3.77-.95-7.35-2.85-10.73-1.9-3.38-4.46-6.01-7.67-7.88-3.21-1.88-6.72-2.81-10.52-2.81zM196.63 57.14l5.76 3.03c-1.89 3.71-4.07 6.71-6.55 8.98a26.02 26.02 0 0 1-8.36 5.2c-3.1 1.19-6.6 1.78-10.51 1.78-8.67 0-15.44-2.84-20.33-8.52-4.89-5.68-7.33-12.1-7.33-19.26 0-6.74 2.07-12.74 6.21-18.02 5.25-6.71 12.27-10.06 21.06-10.06 9.06 0 16.29 3.43 21.7 10.3 3.84 4.85 5.8 10.91 5.86 18.16h-47.8c.13 6.17 2.1 11.23 5.92 15.17s8.52 5.92 14.13 5.92c2.7 0 5.34-.47 7.9-1.41 2.56-.94 4.73-2.19 6.53-3.75 1.78-1.54 3.72-4.05 5.81-7.52zm0-14.31c-.91-3.65-2.24-6.56-3.98-8.74-1.74-2.18-4.05-3.94-6.92-5.27-2.87-1.33-5.88-2-9.04-2-5.22 0-9.7 1.68-13.44 5.03-2.74 2.44-4.81 6.1-6.21 10.99h39.59zM213.39 21.64h6.84v9.52c2.73-3.65 5.76-6.37 9.08-8.18s6.93-2.71 10.84-2.71c3.97 0 7.5 1.01 10.57 3.03 3.08 2.02 5.35 4.74 6.81 8.15s2.2 8.74 2.2 15.97v27.34h-6.84V49.42c0-6.12-.25-10.21-.76-12.26-.79-3.52-2.31-6.16-4.56-7.93-2.25-1.77-5.18-2.66-8.79-2.66-4.13 0-7.84 1.37-11.11 4.1-3.27 2.73-5.43 6.12-6.47 10.16-.65 2.64-.98 7.45-.98 14.45v19.48h-6.84V21.64zM1.73 101.48h14.31c8.2 0 13.74.36 16.6 1.07 4.1 1.01 7.45 3.08 10.06 6.23 2.6 3.14 3.91 7.09 3.91 11.84 0 4.79-1.27 8.73-3.81 11.84-2.54 3.11-6.04 5.2-10.5 6.27-3.25.78-9.34 1.17-18.26 1.17H8.9v33.4H1.73v-71.82zm7.17 7.03v24.37l12.16.15c4.92 0 8.51-.45 10.79-1.34 2.28-.89 4.07-2.34 5.37-4.34 1.3-2 1.95-4.23 1.95-6.7 0-2.4-.65-4.6-1.95-6.6s-3.02-3.42-5.15-4.26c-2.13-.84-5.62-1.27-10.47-1.27H8.9zM78.5 117.95c8.18 0 14.97 2.96 20.35 8.89 4.89 5.4 7.34 11.8 7.34 19.19 0 7.42-2.58 13.91-7.75 19.46-5.17 5.55-11.81 8.33-19.93 8.33-8.15 0-14.81-2.77-19.98-8.33-5.17-5.55-7.75-12.04-7.75-19.46 0-7.36 2.45-13.74 7.34-19.14 5.37-5.97 12.17-8.94 20.38-8.94zm-.02 6.68c-5.68 0-10.57 2.1-14.65 6.3s-6.12 9.28-6.12 15.23c0 3.84.93 7.42 2.79 10.74s4.38 5.88 7.55 7.69c3.17 1.81 6.65 2.71 10.44 2.71s7.27-.9 10.44-2.71 5.68-4.37 7.55-7.69c1.86-3.32 2.79-6.9 2.79-10.74 0-5.96-2.05-11.04-6.15-15.23-4.12-4.2-8.99-6.3-14.64-6.3zM105.16 119.31h7.03l16.28 38.57 16.95-38.57h1.24l17.06 38.57 16.6-38.57h7.11l-23.08 53.12h-1.27L146.1 134.4l-16.98 38.04h-1.27l-22.69-53.13zM236.67 154.81l5.76 3.03c-1.89 3.71-4.07 6.71-6.55 8.98-2.48 2.28-5.26 4.01-8.36 5.2s-6.6 1.78-10.51 1.78c-8.67 0-15.44-2.84-20.33-8.52-4.89-5.68-7.33-12.1-7.33-19.26 0-6.74 2.07-12.74 6.21-18.02 5.25-6.71 12.27-10.06 21.06-10.06 9.06 0 16.29 3.43 21.7 10.3 3.84 4.85 5.8 10.91 5.86 18.16h-47.8c.13 6.17 2.1 11.23 5.92 15.17 3.81 3.95 8.52 5.92 14.13 5.92 2.71 0 5.34-.47 7.9-1.41 2.56-.94 4.73-2.19 6.53-3.75 1.78-1.54 3.72-4.05 5.81-7.52zm0-14.31c-.91-3.65-2.24-6.56-3.98-8.74-1.74-2.18-4.05-3.94-6.92-5.27-2.87-1.33-5.88-2-9.04-2-5.21 0-9.7 1.68-13.44 5.03-2.74 2.44-4.81 6.1-6.21 10.99h39.59zM250.84 119.31h6.98v7.76c2.08-3.06 4.28-5.35 6.59-6.86s4.72-2.27 7.23-2.27c1.89 0 3.91.6 6.05 1.81l-3.56 5.76c-1.43-.62-2.64-.93-3.61-.93-2.28 0-4.48.94-6.59 2.81-2.12 1.87-3.73 4.78-4.83 8.72-.85 3.03-1.27 9.15-1.27 18.36v17.97h-6.98v-53.13zM1.73 200.02h39.61v7.03H8.63v22.51h32.42v7.03H8.63v28.22h32.42v7.03H1.73v-71.82zM52.84 219.13h6.58v9.52c2.63-3.65 5.54-6.37 8.74-8.18 3.2-1.81 6.67-2.71 10.43-2.71 3.82 0 7.21 1.01 10.17 3.03 2.96 2.02 5.14 4.74 6.55 8.15 1.41 3.42 2.11 8.74 2.11 15.97v27.34h-6.58v-25.34c0-6.12-.24-10.21-.73-12.26-.76-3.52-2.22-6.16-4.39-7.93-2.16-1.77-4.98-2.66-8.46-2.66-3.98 0-7.54 1.37-10.69 4.1s-5.22 6.12-6.23 10.16c-.63 2.64-.94 7.45-.94 14.45v19.48h-6.58v-53.12zM151.2 254.63l5.54 3.03c-1.82 3.71-3.92 6.71-6.3 8.98-2.38 2.28-5.06 4.01-8.04 5.2-2.98 1.19-6.35 1.78-10.11 1.78-8.34 0-14.86-2.84-19.56-8.52-4.7-5.68-7.05-12.1-7.05-19.26 0-6.74 1.99-12.74 5.97-18.02 5.05-6.71 11.8-10.06 20.27-10.06 8.72 0 15.68 3.43 20.88 10.3 3.7 4.85 5.58 10.91 5.64 18.16h-46c.12 6.17 2.02 11.23 5.69 15.17 3.67 3.95 8.2 5.92 13.6 5.92 2.6 0 5.13-.47 7.6-1.41 2.46-.94 4.55-2.19 6.28-3.75 1.72-1.54 3.59-4.05 5.59-7.52zm0-14.3c-.88-3.65-2.16-6.56-3.83-8.74-1.68-2.18-3.9-3.94-6.66-5.27-2.76-1.33-5.66-2-8.7-2-5.02 0-9.33 1.68-12.94 5.03-2.63 2.44-4.63 6.1-5.97 10.99h38.1zM164.85 219.13h6.72v7.76c2-3.06 4.12-5.35 6.34-6.86 2.22-1.51 4.54-2.27 6.95-2.27 1.82 0 3.76.6 5.83 1.81l-3.43 5.76c-1.38-.62-2.54-.93-3.48-.93-2.19 0-4.31.94-6.34 2.81-2.04 1.87-3.59 4.78-4.65 8.72-.81 3.03-1.22 9.15-1.22 18.36v17.97h-6.72v-53.13zM236.99 219.13h6.58v42.33c0 7.45-.63 12.91-1.88 16.36-1.72 4.88-4.71 8.64-8.97 11.28s-9.38 3.96-15.36 3.96c-4.39 0-8.33-.65-11.82-1.93-3.49-1.29-6.34-3.02-8.53-5.19-2.19-2.17-4.21-5.35-6.06-9.53h7.14c1.94 3.52 4.45 6.12 7.53 7.81 3.07 1.69 6.88 2.54 11.43 2.54 4.48 0 8.27-.87 11.36-2.6 3.09-1.74 5.29-3.92 6.61-6.55 1.32-2.63 1.98-6.87 1.98-12.73v-2.73c-2.48 3.26-5.5 5.75-9.08 7.5-3.58 1.74-7.37 2.61-11.38 2.61-4.7 0-9.12-1.21-13.26-3.64-4.14-2.42-7.34-5.69-9.59-9.79s-3.39-8.61-3.39-13.53 1.18-9.5 3.53-13.75c2.35-4.25 5.6-7.61 9.76-10.08 4.16-2.47 8.54-3.71 13.15-3.71 3.83 0 7.39.82 10.7 2.47 3.31 1.64 6.5 4.35 9.57 8.13v-9.23zm-19.41 5.23c-3.73 0-7.19.94-10.38 2.81-3.2 1.87-5.7 4.46-7.52 7.76-1.82 3.3-2.72 6.88-2.72 10.72 0 5.83 1.88 10.64 5.64 14.45 3.76 3.81 8.63 5.71 14.61 5.71 6.05 0 10.91-1.89 14.59-5.66 3.68-3.78 5.52-8.74 5.52-14.89 0-4-.85-7.58-2.54-10.72-1.69-3.14-4.09-5.62-7.19-7.45-3.1-1.82-6.44-2.73-10.01-2.73zM248.79 219.13h6.95l17.57 40.91 17.06-40.91h7l-30.49 72.56h-6.95l9.84-23.46-20.98-49.1zM1.73 370.38v-71.83h1.5l46 55.06v-55.06h6.81v71.83h-1.55L8.87 315.99v54.39H1.73zM113.48 351.75l5.54 3.03c-1.82 3.71-3.92 6.71-6.3 8.98-2.38 2.28-5.06 4.01-8.04 5.2-2.98 1.19-6.35 1.78-10.11 1.78-8.34 0-14.86-2.84-19.56-8.52s-7.05-12.1-7.05-19.26c0-6.74 1.99-12.74 5.97-18.02 5.05-6.71 11.8-10.06 20.27-10.06 8.72 0 15.68 3.43 20.88 10.3 3.7 4.85 5.58 10.91 5.64 18.16h-46c.12 6.17 2.02 11.23 5.69 15.17 3.67 3.95 8.2 5.92 13.6 5.92 2.6 0 5.13-.47 7.6-1.41 2.46-.94 4.55-2.19 6.28-3.75s3.58-4.05 5.59-7.52zm0-14.3c-.88-3.65-2.16-6.56-3.83-8.74-1.68-2.18-3.9-3.94-6.66-5.27-2.76-1.33-5.66-2-8.7-2-5.02 0-9.33 1.68-12.94 5.03-2.63 2.44-4.63 6.1-5.97 10.99h38.1zM131.34 296.53h6.58v19.73h10.43v5.91h-10.43v47.22h-6.58v-47.22h-8.97v-5.91h8.97v-19.73zM153.94 316.26h6.77l15.67 38.57 16.31-38.57h1.19l16.42 38.57 15.97-38.57h6.84l-22.21 53.12h-1.22l-16.35-38.04-16.34 38.04h-1.22l-21.83-53.12zM259.65 314.89c7.88 0 14.4 2.96 19.58 8.89 4.71 5.4 7.06 11.8 7.06 19.19 0 7.42-2.49 13.91-7.46 19.46s-11.37 8.33-19.18 8.33c-7.85 0-14.25-2.78-19.23-8.33-4.97-5.55-7.46-12.04-7.46-19.46 0-7.36 2.35-13.74 7.06-19.14 5.18-5.96 11.73-8.94 19.63-8.94zm-.02 6.69c-5.47 0-10.17 2.1-14.1 6.3-3.93 4.2-5.89 9.28-5.89 15.23 0 3.84.9 7.42 2.69 10.74s4.21 5.88 7.26 7.69c3.05 1.81 6.4 2.71 10.04 2.71 3.65 0 6.99-.9 10.04-2.71 3.05-1.81 5.47-4.37 7.26-7.69 1.79-3.32 2.69-6.9 2.69-10.74 0-5.96-1.97-11.04-5.92-15.23s-8.63-6.3-14.07-6.3zM292.61 316.26h6.72v7.76c2-3.06 4.12-5.35 6.34-6.86 2.22-1.51 4.54-2.27 6.95-2.27 1.82 0 3.76.6 5.83 1.81l-3.43 5.76c-1.38-.62-2.54-.93-3.48-.93-2.19 0-4.31.94-6.34 2.81-2.04 1.87-3.59 4.78-4.65 8.72-.81 3.03-1.22 9.15-1.22 18.36v17.97h-6.72v-53.13zM322.63 295.75h6.58v41.95l23.7-21.44h9.66l-28.1 25.34 29.74 27.78h-9.26l-25.75-23.92v23.92h-6.58v-73.63z" style="fill:#FFF"/><ellipse cx="40.06" cy="39.16" rx="14.92" ry="14.84" style="fill:#3eb44a"/></svg>