<svg xmlns="http://www.w3.org/2000/svg" xml:space="preserve" style="enable-background:new 0 0 245 77" viewBox="0 0 245 77"><path d="M39.1.34c10.88 0 19.98 3.63 27.31 10.89 7.33 7.26 10.99 16.19 10.99 26.81 0 10.51-3.66 19.43-10.97 26.76-7.31 7.32-16.23 10.99-26.75 10.99-10.65 0-19.64-3.65-26.97-10.94-7.32-7.3-10.98-16.12-10.98-26.47 0-6.9 1.67-13.3 5.01-19.19C10.08 13.3 14.63 8.68 20.4 5.35 26.15 2.01 32.39.34 39.1.34zm.32 6.98c-5.31 0-10.35 1.38-15.11 4.15-4.76 2.77-8.48 6.5-11.15 11.19-2.67 4.69-4.01 9.92-4.01 15.69 0 8.54 2.96 15.74 8.88 21.62 5.92 5.88 13.05 8.82 21.4 8.82 5.57 0 10.73-1.35 15.48-4.06 4.74-2.7 8.44-6.4 11.1-11.09C68.67 48.95 70 43.74 70 38c0-5.7-1.33-10.86-3.99-15.47s-6.4-8.3-11.22-11.07c-4.84-2.75-9.96-4.14-15.37-4.14zM86.73 2.15h14.31c8.2 0 13.74.36 16.6 1.07 4.1 1.01 7.45 3.08 10.06 6.23 2.6 3.14 3.91 7.09 3.91 11.84 0 4.79-1.27 8.73-3.81 11.84-2.54 3.11-6.04 5.2-10.5 6.27-3.25.78-9.34 1.17-18.26 1.17H93.9v33.4h-7.18V2.15zm7.17 7.03v24.37l12.16.15c4.92 0 8.51-.45 10.79-1.34 2.28-.89 4.07-2.34 5.37-4.34 1.3-2 1.95-4.23 1.95-6.7 0-2.4-.65-4.6-1.95-6.6s-3.02-3.42-5.15-4.26c-2.13-.84-5.62-1.27-10.47-1.27H93.9zM138.73 2.15h39.61v7.03h-32.7v22.51h32.42v7.03h-32.42v28.22h32.42v7.03h-39.33V2.15zM188.73 73.97V2.15h1.5l46 55.06V2.15h6.81v71.83h-1.55l-45.62-54.39v54.39h-7.14z" style="fill:#fff"/><ellipse cx="39.54" cy="38.06" rx="12.41" ry="12.34" style="fill:#3eb44a"/></svg>