<svg id="Layer_1" data-name="Layer 1" xmlns="http://www.w3.org/2000/svg" viewBox="0 0 1379.04 216"><defs><style>.cls-1,.cls-2{fill:#fff}</style></defs><path class="cls-1" d="M0 0h40.51v216H0zM68.29 0h84.79v37.8H68.29zM68.29 178.2h84.79V216H68.29zM68.29 89.1h84.79v37.8H68.29zM180.86 0h40.51v216h-40.51z"/><path class="cls-2" d="M471.05 112.45H369.96v88.12h116.23V216H351.71V0h133.74v15.43H369.97v81.59h101.09v15.43ZM543.05 200.57h106.73V216H524.65V0h18.41v200.57ZM804.15 112.45H703.06v88.12h116.23V216H684.81V0h133.74v15.43H703.07v81.59h101.09v15.43ZM931.9 189.3l1.19 4.6 1.34-4.6L1002.4 0h20.04l-80.45 216h-17.52L844.02 0h19.89l67.98 189.3ZM1164.55 112.45h-101.09v88.12h116.23V216h-134.48V0h133.74v15.43h-115.48v81.59h101.09v15.43ZM1379.04 216h-18.26L1236.54 31.15V216h-18.41V0h18.41l124.39 184.99V0h18.11v216Z"/></svg>