<?xml version="1.0" encoding="UTF-8"?>
<svg id="Layer_1" data-name="Layer 1" xmlns="http://www.w3.org/2000/svg" viewBox="0 0 1379.04 216">
  <defs>
    <style>
      .cls-1 {
        fill: #010101;
      }

      .cls-2 {
        fill: #231f20;
      }
    </style>
  </defs>
  <g>
    <rect class="cls-1" width="40.51" height="216"/>
    <rect class="cls-1" x="68.29" width="84.79" height="37.8"/>
    <rect class="cls-1" x="68.29" y="178.2" width="84.79" height="37.8"/>
    <rect class="cls-1" x="68.29" y="89.1" width="84.79" height="37.8"/>
    <rect class="cls-1" x="180.86" width="40.51" height="216"/>
  </g>
  <path class="cls-2" d="M471.05,112.45h-101.09v88.12h116.23v15.43h-134.48V0h133.74V15.43h-115.48V97.02h101.09v15.43Z"/>
  <path class="cls-2" d="M543.05,200.57h106.73v15.43h-125.13V0h18.41V200.57Z"/>
  <path class="cls-2" d="M804.15,112.45h-101.09v88.12h116.23v15.43h-134.48V0h133.74V15.43h-115.48V97.02h101.09v15.43Z"/>
  <path class="cls-2" d="M931.9,189.3l1.19,4.6,1.34-4.6L1002.4,0h20.04l-80.45,216h-17.52L844.02,0h19.89l67.98,189.3Z"/>
  <path class="cls-2" d="M1164.55,112.45h-101.09v88.12h116.23v15.43h-134.48V0h133.74V15.43h-115.48V97.02h101.09v15.43Z"/>
  <path class="cls-2" d="M1379.04,216h-18.26l-124.24-184.85V216h-18.41V0h18.41l124.39,184.99V0h18.11V216Z"/>
</svg>