<svg xmlns="http://www.w3.org/2000/svg" viewBox="0 0 1552.29 216" xmlns:v="https://vecta.io/nano"><path d="M.96 0h40.51v216H.96zm68.29 0h84.79v37.8H69.25zm0 178.2h84.79V216H69.25zm0-89.1h84.79v37.8H69.25zM181.82 0h40.51v216h-40.51z" fill="#010101"/><path d="M472.01 112.45H370.92v88.12h116.23V216H352.66V0H486.4v15.43H370.92v81.59h101.09v15.43zM544 200.57h106.73V216H525.59V0H544v200.57zm261.1-88.12H704.02v88.12h116.23V216H685.76V0H819.5v15.43H704.02v81.59H805.1v15.43zm127.75 76.85l1.19 4.6 1.34-4.6L1003.36 0h20.04l-80.45 216h-17.52L844.98 0h19.89l67.98 189.3zm232.66-76.85h-101.09v88.12h116.23V216h-134.48V0h133.74v15.43h-115.48v81.59h101.09v15.43zM1380 216h-18.26L1237.5 31.15V216h-18.41V0h18.41l124.39 184.99V0H1380v216zm152.96-54.72c0-11.64-4.09-20.86-12.27-27.64s-23.14-13.23-44.89-19.34-37.62-12.77-47.63-19.99c-14.24-10.2-21.36-23.57-21.36-40.12 0-16.07 6.61-29.13 19.84-39.19 13.23-10.05 30.14-15.08 50.73-15.08 13.95 0 26.43 2.69 37.45 8.08s19.56 12.9 25.62 22.52 9.09 20.35 9.09 32.19h-17.9c0-14.38-4.91-25.94-14.72-34.67s-23-13.1-39.55-13.1c-16.07 0-28.87 3.59-38.39 10.77-9.53 7.18-14.29 16.55-14.29 28.11 0 10.7 4.28 19.42 12.84 26.17s22.28 12.7 41.13 17.85c18.86 5.16 33.15 10.5 42.87 16.03s17.03 12.15 21.94 19.85 7.36 16.79 7.36 27.28c0 16.55-6.62 29.83-19.84 39.83-13.23 10.01-30.67 15.01-52.32 15.01-14.82 0-28.41-2.65-40.77-7.94s-21.75-12.7-28.14-22.23c-6.4-9.53-9.6-20.44-9.6-32.76h17.75c0 14.82 5.53 26.51 16.6 35.07 11.06 8.57 25.79 12.85 44.16 12.85 16.36 0 29.49-3.61 39.4-10.83 9.94-7.22 14.89-16.79 14.89-28.72z"/></svg>