<?xml version="1.0" standalone="no"?>
<!DOCTYPE svg PUBLIC "-//W3C//DTD SVG 20010904//EN"
 "http://www.w3.org/TR/2001/REC-SVG-20010904/DTD/svg10.dtd">
<svg version="1.0" xmlns="http://www.w3.org/2000/svg"
 width="700.000000pt" height="700.000000pt" viewBox="0 0 700.000000 700.000000"
 preserveAspectRatio="xMidYMid meet">
<metadata>
Created by potrace 1.14, written by Peter Selinger 2001-2017
</metadata>
<g transform="translate(0.000000,700.000000) scale(0.100000,-0.100000)"
fill="#000000" stroke="none">
<path d="M3270 6879 c-606 -41 -1191 -246 -1700 -597 -194 -133 -385 -300
-562 -492 -804 -867 -1092 -2102 -757 -3247 116 -398 340 -827 603 -1158 102
-127 402 -428 526 -526 876 -695 2012 -920 3077 -608 398 116 827 340 1158
603 127 102 428 402 526 526 695 876 920 2011 608 3077 -116 397 -341 829
-603 1158 -101 127 -402 428 -526 527 -557 443 -1202 691 -1915 738 -178 11
-252 11 -435 -1z m620 -1087 c239 -44 415 -100 625 -202 239 -116 429 -252
626 -449 355 -356 566 -767 656 -1276 14 -79 17 -157 17 -365 0 -283 -7 -356
-60 -565 -166 -661 -619 -1221 -1229 -1520 -215 -105 -411 -168 -660 -212
-143 -25 -587 -25 -730 0 -509 90 -921 302 -1276 656 -353 354 -569 772 -655
1271 -22 127 -30 485 -15 621 60 525 279 988 646 1368 363 375 832 611 1360
686 153 21 545 14 695 -13z"/>
<path d="M3296 4664 c-251 -45 -458 -153 -637 -333 -160 -160 -261 -339 -317
-560 -23 -93 -26 -126 -26 -271 0 -139 4 -180 24 -260 55 -228 149 -396 310
-561 233 -238 520 -359 849 -359 333 0 616 120 851 359 189 193 292 404 330
676 35 254 -28 541 -171 771 -107 174 -320 361 -504 445 -218 98 -484 134
-709 93z"/>
</g>
</svg>
